HIERARCHY
ROOT ui
{
	 OFFSET 0 0 0
	 CHANNELS 3 XPosition YPosition Z Position
	 EndSite
	 {
	 OFFSET 0 -1 0
	 }
}
ROOT li
{
	 OFFSET 0 0 0
	 CHANNELS 3 XPosition YPosition Z Position
	 EndSite
	 {
	 OFFSET 0 -1 0
	 }
}
ROOT ul
{
	 OFFSET 0 0 0
	 CHANNELS 3 XPosition YPosition Z Position
	 EndSite
	 {
	 OFFSET 0 -1 0
	 }
}
ROOT ll
{
	 OFFSET 0 0 0
	 CHANNELS 3 XPosition YPosition Z Position
	 EndSite
	 {
	 OFFSET 0 -1 0
	 }
}
ROOT tt
{
	 OFFSET 0 0 0
	 CHANNELS 3 XPosition YPosition Z Position
	 EndSite
	 {
	 OFFSET 0 -1 0
	 }
}
ROOT tb
{
	 OFFSET 0 0 0
	 CHANNELS 3 XPosition YPosition Z Position
	 EndSite
	 {
	 OFFSET 0 -1 0
	 }
}
ROOT td
{
	 OFFSET 0 0 0
	 CHANNELS 3 XPosition YPosition Z Position
	 EndSite
	 {
	 OFFSET 0 -1 0
	 }
}
ROOT v
{
	 OFFSET 0 0 0
	 CHANNELS 3 XPosition YPosition Z Position
	 EndSite
	 {
	 OFFSET 0 -1 0
	 }
}
ROOT bn
{
	 OFFSET 0 0 0
	 CHANNELS 3 XPosition YPosition Z Position
	 EndSite
	 {
	 OFFSET 0 -1 0
	 }
}
MOTION
Frames: 29
Frame Time: 0.002
-0.0012539780139923095	4.7805998474359515E-5	0		0.5204612426757812	-2.34452197265625	0		-0.9053309936523437	0.11701692199707031	0		-0.5699158325195313	-2.526312255859375	0		1.60685498046875	-0.46139639282226563	0		3.270601806640625	-0.43374609375	0		4.550373046875	-0.4013204345703125	0		5.9456787109375	0.39718603515625	0		0.030946809768676756	5.96240771484375	0		
-9.659309983253479E-4	-4.5933800935745237E-4	0		0.49492416381835935	-2.3425419921875	0		-0.9790382690429688	0.11775879669189453	0		-0.5823740844726563	-2.520624755859375	0		1.5933125	-0.45356552124023436	0		3.24925244140625	-0.41467996215820313	0		4.5499833984375	-0.38454925537109375	0		5.94664453125	0.380008056640625	0		-0.10247645568847656	5.94224462890625	0		
-0.004732493877410889	-0.0049248671531677245	0		0.5042225036621094	-2.351205810546875	0		-0.9787422485351562	0.11716532135009766	0		-0.5673291625976562	-2.544454345703125	0		1.5936419677734375	-0.45400848388671877	0		3.272611083984375	-0.41342950439453124	0		4.55441357421875	-0.37889028930664065	0		5.94622314453125	0.39683468627929686	0		-0.10153888702392579	5.94068505859375	0		
0.0027040159702301026	0.0013904260396957397	0		0.4838512268066406	-2.341372314453125	0		-0.9684530029296875	0.11537316131591797	0		-0.632682373046875	-2.533896728515625	0		1.5970526123046875	-0.45053054809570314	0		3.2855771484375	-0.37801666259765626	0		4.56506298828125	-0.36136572265625	0		5.950671875	0.40554583740234373	0		-0.08737702178955079	5.9508720703125	0		
0.003028613090515137	8.092359900474549E-4	0		0.49458447265625	-2.32610302734375	0		-0.969977783203125	0.12377089691162109	0		-0.6112012329101563	-2.53387939453125	0		1.6004718017578126	-0.44707504272460935	0		3.266012939453125	-0.3730660095214844	0		4.56365234375	-0.3476580200195313	0		5.9509736328125	0.4052986450195312	0		0.028839696884155275	5.962263671875	0		
3.087050020694733E-4	-0.0027348690032958983	0		0.49095556640625	-2.33160302734375	0		-0.9777903442382813	0.11526183319091797	0		-0.583927734375	-2.545976318359375	0		1.6248760986328126	-0.4450025634765625	0		3.274572021484375	-0.3616272277832031	0		4.56224609375	-0.3339759521484375	0		5.95030126953125	0.4060401611328125	0		-0.10451213836669922	5.94198046875	0		
6.447020173072815E-4	-0.0033421669006347657	0		0.4893768310546875	-2.334150146484375	0		-0.9833729858398438	0.11970741271972657	0		-0.6224725952148438	-2.5469384765625	0		1.6011865234375	-0.448110595703125	0		3.263205078125	-0.3458611145019531	0		4.54372314453125	-0.3270212097167969	0		5.9467724609375	0.41480624389648435	0		-0.11965220642089844	5.93162890625	0		
-0.003948632001876831	1.3106699287891387E-4	0		0.46491714477539064	-2.32930810546875	0		-0.9771292724609375	0.11394425201416016	0		-0.5901375122070313	-2.55513232421875	0		1.6215247802734376	-0.4499902038574219	0		3.268989501953125	-0.3214048156738281	0		4.560228515625	-0.3186900634765625	0		5.9560703125	0.4133279724121094	0		-0.08924617004394532	5.95148974609375	0		
0.004367372989654541	-0.0016185280084609985	0		0.50319921875	-2.339551025390625	0		-0.9768001708984375	0.11328700256347657	0		-0.6527611083984375	-2.5596865234375	0		1.605968505859375	-0.4452520751953125	0		3.2693388671875	-0.32186480712890625	0		4.567783203125	-0.30721234130859376	0		5.9685390625	0.42178494262695315	0		0.041240013122558594	5.97463232421875	0		
-2.1700799465179443E-4	0.002861669063568115	0		0.4968231506347656	-2.32901513671875	0		-0.9764762573242187	0.11263802337646485	0		-0.5834475708007812	-2.568504638671875	0		1.6683426513671875	-0.4448497314453125	0		3.289919677734375	-0.30866848754882814	0		4.5571279296875	-0.30742343139648437	0		5.96400390625	0.43053240966796874	0		0.027113862991333008	5.96327099609375	0		
1.0311300307512284E-4	0.0022694149017333984	0		0.49521112060546874	-2.331551025390625	0		-0.9879879150390625	0.12220718383789063	0		-0.669882568359375	-2.560633544921875	0		1.6715106201171874	-0.4554190673828125	0		3.28439111328125	-0.30101556396484375	0		4.564666015625	-0.2959383850097656	0		5.959443359375	0.4382849426269531	0		0.02619107246398926	5.96369677734375	0		
-0.0026567950248718264	-0.002252316951751709	0		0.49153240966796874	-2.33703466796875	0		-0.9917527465820313	0.11766097259521484	0		-0.5938195190429687	-2.582530517578125	0		1.671837890625	-0.4559223327636719	0		3.28178076171875	-0.29740032958984375	0		4.5588505859375	-0.30421630859375	0		5.95973291015625	0.4379620361328125	0		-0.10810791778564453	5.94341650390625	0		
-0.002364099979400635	-0.002801671028137207	0		0.4919180908203125	-2.337564453125	0		-0.9806368408203125	0.10688622283935546	0		-0.6314015502929687	-2.5814560546875	0		1.677045654296875	-0.4624893493652344	0		3.286169677734375	-0.2928878173828125	0		4.5553603515625	-0.29251760864257814	0		5.9690068359375	0.43749667358398436	0		-0.10706914520263672	5.94184619140625	0		
9.77796971797943E-4	6.275479793548584E-4	0		0.4983973083496094	-2.331168212890625	0		-0.97529931640625	0.11024508666992187	0		-0.58319140625	-2.5918134765625	0		1.691198974609375	-0.47118304443359377	0		3.30475830078125	-0.275593505859375	0		4.56871142578125	-0.289089111328125	0		5.973400390625	0.44513018798828125	0		-0.09084797668457031	5.95104931640625	0		
0.013262986183166504	0.001940824031829834	0		0.4717686462402344	-2.329176025390625	0		-0.9801173095703125	0.1058140106201172	0		-0.65373681640625	-2.5851123046875	0		1.69146826171875	-0.4716074523925781	0		3.299157470703125	-0.26786151123046875	0		4.575109375	-0.28151712036132814	0		5.96880810546875	0.45493707275390627	0		0.02542037582397461	5.9625927734375	0		
-0.0034724578857421875	0.003788469076156616	0		0.49494989013671875	-2.33698974609375	0		-0.914037353515625	0.0962252960205078	0		-0.596467529296875	-2.5885390625	0		1.6855770263671874	-0.47989080810546875	0		3.2894296875	-0.26602691650390625	0		4.5723134765625	-0.283759521484375	0		5.9600234375	0.4548407897949219	0		0.02545718574523926	5.9621533203125	0		
-0.0032734549045562744	0.003395925998687744	0		0.46622213745117186	-2.33687744140625	0		-0.9918806762695312	0.09412519836425781	0		-0.6331697998046875	-2.587323486328125	0		1.692518798828125	-0.49634957885742187	0		3.30971826171875	-0.2616611328125	0		4.57662158203125	-0.27808547973632813	0		5.9640732421875	0.44655780029296877	0		0.02449734115600586	5.9627783203125	0		
0.0018233070373535156	-0.001027492046356201	0		0.49137725830078127	-2.341626220703125	0		-0.9967679443359375	0.0908446044921875	0		-0.5891627807617188	-2.601420654296875	0		1.7004256591796876	-0.512777587890625	0		3.320007080078125	-0.2550838928222656	0		4.57960791015625	-0.2893543701171875	0		5.96936083984375	0.4542887268066406	0		-0.12677587890625	5.9469912109375	0		
-0.002982028007507324	0.0027741289138793947	0		0.4396800537109375	-2.334021728515625	0		-0.9907285766601562	0.08544032287597657	0		-0.6558016357421875	-2.59058740234375	0		1.71725732421875	-0.5313068237304688	0		3.324222900390625	-0.2503620147705078	0		4.5989404296875	-0.2778590087890625	0		5.97747607421875	0.45400146484375	0		-0.12677869415283202	5.94670654296875	0		
0.004218352794647217	0.009434233665466309	0		0.49574371337890627	-2.338178466796875	0		-1.0006282348632813	0.08637129974365235	0		-0.6186973876953125	-2.592442138671875	0		1.683270263671875	-0.5359259643554688	0		3.3274111328125	-0.24457936096191407	0		4.5880302734375	-0.27781857299804685	0		5.98555126953125	0.45374465942382813	0		0.024488231658935548	5.9619375	0		
-0.055837268829345706	0.004288401126861572	0		0.4647766418457031	-2.3398076171875	0		-1.0087089233398439	0.07933940887451171	0		-0.6247325439453125	-2.59850390625	0		1.7239031982421875	-0.5607512817382813	0		3.358429443359375	-0.24622189331054686	0		4.60978076171875	-0.2952937316894531	0		5.98144921875	0.44572097778320313	0		0.023477828979492188	5.96279736328125	0		
-0.002871409893035889	0.002305408000946045	0		0.4896892700195313	-2.345316650390625	0		-0.9328980712890625	0.06796649932861328	0		-0.5996505126953126	-2.594018798828125	0		1.7177620849609374	-0.568732666015625	0		3.322560546875	-0.237693603515625	0		4.60599169921875	-0.28229928588867187	0		5.97658984375	0.4547387390136719	0		-0.10892609405517578	5.941931640625	0		
-0.0029229369163513183	0.0022807068824768064	0		0.4725486755371094	-2.350055908203125	0		-1.0119887084960937	0.06627489471435546	0		-0.5908797607421875	-2.60419189453125	0		1.722371337890625	-0.5888441162109375	0		3.358368408203125	-0.24633352661132812	0		4.61488720703125	-0.28548947143554687	0		5.985521484375	0.45354400634765624	0		-0.10799287414550782	5.939890625	0		
0.027903657913208008	-0.003199512004852295	0		0.5082467956542969	-2.361625	0		-1.0102078247070312	0.058295024871826175	0		-0.6479691772460937	-2.602183837890625	0		1.733076171875	-0.6010060424804687	0		3.370548583984375	-0.2305348358154297	0		4.61996728515625	-0.2755862731933594	0		5.98544189453125	0.45351727294921873	0		-0.09282712554931641	5.9506787109375	0		
0.008066091537475586	0.013241291999816895	0		0.5121735229492187	-2.356596923828125	0		-0.9403942260742187	0.05324153518676758	0		-0.5850556030273437	-2.5981279296875	0		1.7298870849609376	-0.6048828735351562	0		3.36224951171875	-0.24135888671875	0		4.63798388671875	-0.26787625122070313	0		5.972494140625	0.46272283935546876	0		-0.10798573303222657	5.94104150390625	0		
0.022747663497924803	0.002159286022186279	0		0.5038086853027344	-2.3663046875	0		-0.963689208984375	0.043827926635742184	0		-0.6602149658203125	-2.5946748046875	0		1.7205546875	-0.6156078491210938	0		3.350215087890625	-0.23508148193359374	0		4.6317109375	-0.2757340698242188	0		5.97625732421875	0.4556584777832031	0		0.024420036315917968	5.9619814453125	0		
-0.003399225950241089	0.0028295390605926514	0		0.5015395202636719	-2.3680576171875	0		-0.9679054565429688	0.04016173553466797	0		-0.5895704956054687	-2.60162109375	0		1.7342445068359376	-0.6236744995117187	0		3.3869150390625	-0.2435959014892578	0		4.64049853515625	-0.27882119750976564	0		5.976123046875	0.45567501831054685	0		-0.1078871841430664	5.94144921875	0		
-0.006622047901153565	1.6898700594902038E-4	0		0.5012650756835938	-2.367791259765625	0		-1.049319091796875	0.02686816596984863	0		-0.6587092895507812	-2.592137939453125	0		1.74129736328125	-0.6675906372070313	0		3.35999072265625	-0.2279977569580078	0		4.6533798828125	-0.27495428466796873	0		5.97981689453125	0.4466390380859375	0		-0.10782073974609375	5.94074169921875	0		
-0.0037683320045471193	0.003458199977874756	0		0.5098137817382813	-2.375627685546875	0		-0.9795928955078125	0.02206953239440918	0		-0.643070556640625	-2.594037109375	0		1.7577415771484375	-0.6866228637695313	0		3.396640869140625	-0.23645187377929688	0		4.66826953125	-0.269099853515625	0		5.97991455078125	0.46268182373046873	0		-0.09253926849365235	5.95183056640625	0		
